<?xml version="1.0" encoding="utf-8"?>
<!-- Generator: Adobe Illustrator 20.0.0, SVG Export Plug-In . SVG Version: 6.00 Build 0)  -->
<svg version="1.1" id="Layer_1" xmlns="http://www.w3.org/2000/svg" xmlns:xlink="http://www.w3.org/1999/xlink" x="0px" y="0px"
	 viewBox="0 0 45 45" style="enable-background:new 0 0 45 45;" xml:space="preserve">
<style type="text/css">
	.st0{fill:#227ABF;}
	.st1{fill:#FFFFFF;}
	.st2{fill:#3189CA;}
	.st3{fill:#439FD9;}
	.st4{fill:#55ADE1;}
</style>
<g>
	<path class="st0" d="M27.3,41.4l12.4-9c3-2.2,4.2-6,3.1-9.5L38,8.4c-1.1-3.5-4.4-5.9-8-5.9H14.7c-3.7,0-6.9,2.4-8,5.9L1.9,22.9
		c-1.1,3.5,0.1,7.3,3.1,9.5l12.4,9C20.3,43.5,24.3,43.5,27.3,41.4z"/>
	<circle class="st1" cx="22.1" cy="13.9" r="2.9"/>
	<path class="st2" d="M31.4,20L7.3,6.8C7,7.3,6.8,7.8,6.6,8.4L3.2,18.8L31,38.7l8.7-6.3c0.5-0.3,0.8-0.7,1.2-1.1L31.4,20z"/>
	<path class="st3" d="M42.7,22.9L42,20.7L17.4,2.5h-2.8c-3.7,0-6.9,2.4-8,5.9L6.5,8.7l33.2,23.7C42.6,30.2,43.8,26.4,42.7,22.9z"/>
	<path class="st4" d="M29.9,2.6H16.8l25.1,18L38,8.4C36.8,4.9,33.6,2.6,29.9,2.6z"/>
	<g>
		<path class="st1" d="M22.1,35.8c0,0,2-16.8,11.9-21.6c0,0-5.4-1.6-11.9,5.9V35.8z"/>
		<path class="st1" d="M22.1,35.8c0,0-2-16.8-11.9-21.6c0,0,5.4-1.6,11.9,5.9V35.8z"/>
	</g>
	<circle class="st1" cx="22.1" cy="13.7" r="3.1"/>
</g>
<polygon class="st1" points="22.1,35.1 19.1,20.1 22.1,20.2 26.2,20.2 23.8,27.7 23.2,29.9 "/>
</svg>
